<?xml version="1.0" encoding="UTF-8"?>
<svg width="1340px" height="1074px" viewBox="0 0 1340 1074" version="1.1" xmlns="http://www.w3.org/2000/svg" xmlns:xlink="http://www.w3.org/1999/xlink">
    <!-- Generator: Sketch 64 (93537) - https://sketch.com -->
    <title>iMac 27</title>
    <desc>Created with Sketch.</desc>
    <g id="Gadgets-illustrations" stroke="none" stroke-width="1" fill="none" fill-rule="evenodd">
        <g transform="translate(-4052.000000, -4446.000000)" fill="#000000" fill-rule="nonzero" id="19">
            <g transform="translate(4052.000000, 4446.000000)">
                <path d="M1297.9941,1.81444193e-10 C1321.19539,1.81444193e-10 1340,18.8029348 1340,42.0072436 L1340,42.0072436 L1340,880.992756 C1340,904.195291 1321.19844,923 1297.9941,923 L1297.9941,923 L802.081237,923.000529 C802.248729,927.185943 802.45855,931.848578 802.713654,936.869138 C803.444308,951.248724 804.392773,965.627279 805.58241,979.040403 C808.430306,1011.15037 812.314312,1032.98388 816.70176,1037.76217 C819.563022,1040.87832 832.340209,1047.32054 841.778378,1050.46438 C848.659222,1052.75638 855.314143,1054.75385 861.488181,1056.44505 C863.647178,1057.03644 865.590893,1057.54709 867.287525,1057.97558 C867.879743,1058.12514 868.398303,1058.25365 868.839233,1058.36092 C869.101422,1058.42471 869.278054,1058.46691 869.393389,1058.49417 C872.111326,1059.16575 874.204381,1061.82693 874.220497,1064.62682 L874.220497,1064.62682 L874.2425,1068.44927 C874.260025,1071.49394 871.79443,1073.96477 868.75011,1073.96477 L868.75011,1073.96477 L472.500517,1073.96477 C469.45344,1073.96477 467.001381,1071.49375 467.018906,1068.44927 L467.018906,1068.44927 L467.040908,1064.62682 C467.057024,1061.82693 469.150079,1059.16575 471.896246,1058.48737 C471.983351,1058.46691 472.159984,1058.42471 472.422173,1058.36092 C472.863102,1058.25365 473.381662,1058.12514 473.97388,1057.97558 C475.670512,1057.54709 477.614227,1057.03644 479.773224,1056.44505 C485.947262,1054.75385 492.602183,1052.75638 499.483027,1050.46438 C508.921196,1047.32054 521.698383,1040.87832 524.559645,1037.76217 C528.947093,1032.98388 532.8311,1011.15037 535.678996,979.040403 C536.868632,965.627279 537.817098,951.248724 538.547751,936.869138 C538.803521,931.835481 539.01377,927.161621 539.181478,922.967786 L539.18,923 L42.0058964,923 C19.0366203,923 0.376531815,904.571244 0.00562697422,881.687551 L-6.04813977e-11,880.992756 L-6.04813977e-11,42.0072436 C-6.04813977e-11,18.8047088 18.8015553,1.81444193e-10 42.0058964,1.81444193e-10 L42.0058964,1.81444193e-10 Z M868.775983,1064.45815 L472.377088,1064.45815 C472.264617,1064.45815 472.156462,1064.47667 472.055531,1064.51078 C472.045749,1064.56066 472.041094,1064.6088 472.040825,1064.6556 L472.040825,1064.6556 L472.018823,1068.47805 C472.017245,1068.75209 472.228296,1068.96477 472.500517,1068.96477 L472.500517,1068.96477 L868.75003,1068.96477 L868.839667,1068.9569 C869.071625,1068.91555 869.243954,1068.71624 869.242583,1068.47805 L869.242583,1068.47805 L869.22058,1064.6556 C869.220398,1064.62389 869.218202,1064.59157 869.214133,1064.5588 C869.081856,1064.49387 868.933311,1064.45815 868.775983,1064.45815 L868.775983,1064.45815 Z M797.077187,922.998862 L544.184,923 L544.177485,923.167571 C544.021112,927.077961 543.827963,931.402701 543.595623,936.045782 L543.541309,937.12287 C542.807706,951.560508 541.855275,965.999177 540.659445,979.482129 C537.65739,1013.33024 533.782951,1035.10997 528.242593,1041.14387 C524.644486,1045.06251 511.256166,1051.81286 501.063163,1055.20813 C494.091696,1057.53032 487.351245,1059.55345 481.094171,1061.2674 C479.483229,1061.70867 477.988977,1062.10602 476.623964,1062.45893 L864.637441,1062.45893 C863.272429,1062.10602 861.778176,1061.70867 860.167234,1061.2674 C853.91016,1059.55345 847.169709,1057.53032 840.198242,1055.20813 C830.00524,1051.81286 816.616919,1045.06251 813.018812,1041.14387 C807.478455,1035.10997 803.604015,1013.33024 800.60196,979.482129 C799.406131,965.999177 798.4537,951.560508 797.720096,937.12287 C797.463376,932.070497 797.252322,927.37876 797.083921,923.167571 C797.081662,923.111092 797.079418,923.054855 797.077187,922.998862 Z M1332,799.999 L7.999,799.999 L8,880.993297 C8,899.590885 22.9196657,914.695218 41.4434773,914.995445 L42.0058964,915 L1297.9941,915 C1316.78,915 1332,899.777425 1332,880.993297 L1332,880.993297 L1332,799.999 Z M683.66754,837.360433 C688.272068,837.360433 693.62731,840.077642 696.583716,843.920778 L696.790766,844.197181 L698.107724,846.003507 L696.166144,847.112305 C692.425474,849.248527 690.270446,852.85984 690.270446,857.348649 C690.270446,861.911594 693.131542,866.226829 697.347698,868.051837 L697.630766,868.16979 L699.4,868.878712 L698.777866,870.679559 C695.545866,880.035005 688.678479,888.5 682.705043,888.5 C680.593209,888.5 679.207463,888.165094 676.785203,887.249993 L676.316633,887.070874 C674.107206,886.219162 673.089457,885.952171 671.520964,885.952171 C670.136,885.952171 669.162573,886.163905 667.424466,886.796908 L665.813258,887.398894 C663.609533,888.200115 662.241,888.5 660.229835,888.5 C653.703417,888.5 645.792073,878.21451 643.40691,868.488793 C641.071695,858.763502 641.494219,851.411813 645.803489,844.682473 C648.504239,840.427832 654.363267,837.360433 659.373562,837.360433 C661.691208,837.360433 663.427494,837.730636 665.986219,838.604466 L667.321367,839.071946 C667.63055,839.179938 667.881833,839.265412 668.119945,839.342949 C669.345866,839.742148 670.274319,839.937486 671.252107,839.959463 L671.54727,839.960885 C672.489798,839.973269 673.392077,839.815486 674.560642,839.457134 L675.101468,839.283656 L676.565426,838.774242 C679.3991,837.778374 681.20532,837.360433 683.66754,837.360433 Z M683.66754,841.361399 C681.869297,841.361399 680.504918,841.652626 678.313997,842.402641 L677.03946,842.84931 C676.705278,842.966028 676.428318,843.060226 676.159208,843.147836 C674.574316,843.663808 673.271808,843.93457 671.918005,843.960503 L671.547263,843.961505 C670.003604,843.981781 668.610153,843.710519 666.879982,843.147119 L666.464798,843.008927 L665.148171,842.548685 C662.705283,841.690148 661.284485,841.361399 659.373562,841.361399 C655.704435,841.361399 651.133054,843.754671 649.17921,846.832641 C645.555856,852.490881 645.193984,858.787283 647.297001,867.545661 C649.29196,875.680202 656.075187,884.499034 660.229835,884.499034 C661.779612,884.499034 662.807046,884.253837 664.852228,883.488635 L665.309534,883.315581 C667.922213,882.320771 669.35266,881.951205 671.520964,881.951205 C673.593276,881.951205 674.970363,882.28385 677.350736,883.182809 L677.812101,883.359144 C680.06949,884.22941 681.095634,884.499034 682.705043,884.499034 C686.049118,884.499034 691.169034,878.580611 694.134066,871.605728 L694.369872,871.036559 L694.317022,871.007955 C689.646905,868.374259 686.532972,863.407078 686.283701,858.043899 L686.271341,857.685789 L686.26754,857.348649 C686.26754,852.427234 688.283686,848.202475 691.800311,845.28283 L692.096825,845.04256 L692.156265,844.996274 L691.974914,844.829421 C689.834889,842.922387 686.875522,841.577484 684.292644,841.385141 L683.971832,841.367144 L683.66754,841.361399 Z M687.233426,819 L687.359461,821.109992 C687.856599,829.432731 681.51719,836.741209 672.971628,837.759932 L672.641874,837.796001 L670.547351,838.004587 L670.408206,835.925329 C669.853143,827.63102 676.206305,820.345938 684.779637,819.265064 L685.110465,819.226562 L687.233426,819 Z M683.884257,823.000966 L683.845669,823.012913 C678.754827,824.560948 674.958001,828.696466 673.986891,833.639558 L673.922353,833.993985 L673.87699,834.278879 L673.935503,834.262921 C678.995101,832.744156 682.783782,828.598673 683.776377,823.625181 L683.842501,823.268548 L683.884257,823.000966 Z M1297.9941,8 L42.0058964,8 C23.2200029,8 8,23.2225753 8,42.0067035 L8,42.0067035 L7.999,794.999 L1332,794.999 L1332,42.0067035 C1332,23.4091154 1317.08033,8.30478164 1298.55652,8.00455472 L1297.9941,8 Z M1278.9975,55 C1282.31259,55 1285,57.6905099 1285,61.0043407 L1285,738.995659 C1285,742.311765 1282.31526,745 1278.9975,745 L61.002495,745 C57.6874086,745 55,742.30949 55,738.995659 L55,61.0043407 C55,57.6882349 57.6847406,55 61.002495,55 L1278.9975,55 Z M1278.99836,59 L61.0016363,59 C59.944439,59 59.0817225,59.8151731 59.005478,60.8503073 L59,60.9996156 L59,739.000384 C59,740.102891 59.8965875,741 61.0016363,741 L1278.99836,741 C1280.1059,741 1281,740.105343 1281,739.000384 L1281,60.9996156 C1281,59.8971091 1280.10341,59 1278.99836,59 Z M670,24 C673.865993,24 677,27.133893 677,30.999746 C677,34.7850604 673.995217,37.8685954 670.24065,37.9954331 L670,37.999492 C666.134007,37.999492 663,34.865599 663,30.999746 C663,27.133893 666.134007,24 670,24 Z M670,25.9766674 C667.224951,25.9766674 664.975735,28.2258011 664.975735,30.999746 C664.975735,33.7006924 667.108129,35.9040857 669.782041,36.0181833 L670,36.0228246 C672.775049,36.0228246 675.024265,33.7736909 675.024265,30.999746 C675.024265,28.2258011 672.775049,25.9766674 670,25.9766674 Z" id="iMac-27"></path>
            </g>
        </g>
    </g>
</svg>