<?xml version="1.0" encoding="UTF-8"?>
<svg width="487px" height="960px" viewBox="0 0 487 960" version="1.1" xmlns="http://www.w3.org/2000/svg" xmlns:xlink="http://www.w3.org/1999/xlink">
    <!-- Generator: Sketch 64 (93537) - https://sketch.com -->
    <title>iPhone 8</title>
    <desc>Created with Sketch.</desc>
    <g id="Gadgets-illustrations" stroke="none" stroke-width="1" fill="none" fill-rule="evenodd">
        <g transform="translate(-465.000000, -1910.000000)" fill="#000000" fill-rule="nonzero" id="5">
            <g transform="translate(465.000000, 1910.000000)">
                <path d="M407.953916,0 C447.167125,0 478.959126,31.7865001 478.959126,70.9901533 L478.959126,70.9901533 L478.959,190.906 L481.522558,191.064983 C484.287886,191.235212 486.517341,193.025659 486.517341,195.064991 L486.517341,260.626571 C486.517341,262.598695 484.41071,264.350782 481.76456,264.607404 L481.522558,264.626578 L478.959,264.784 L478.959126,889.009847 C478.959126,927.826048 447.803962,959.36362 409.128187,959.99049 L407.953916,960 L79.0317577,960 C39.8185496,960 8.02654841,928.2135 8.02654841,889.009847 L8.02654841,889.009847 L8.026,365.073 L5.0910458,364.723645 C2.27933885,364.388268 6.73277133e-14,362.455741 6.75015599e-14,360.423855 L7.31109583e-14,294.862275 C7.32854419e-14,292.822943 2.30119231,291.032497 5.15550125,290.862267 L8.026,290.691 L8.026,278.72 L5.15550125,278.549954 C2.30819653,278.380142 1.86343622e-13,276.581832 1.86517468e-13,274.549946 L1.92126867e-13,208.988366 C1.9230135e-13,206.949034 2.28451965,205.023335 5.0910458,204.688576 L8.026,204.338 L8.026,165.3 L5.35255561,165.106815 C2.91465329,164.930063 0.938342967,163.346313 0.938342967,161.576402 L0.938342967,131.821183 C0.938342967,130.048141 2.92069189,128.467084 5.35255561,128.29077 L8.026,128.096 L8.02654841,70.9901533 C8.02654841,32.1739517 39.1817126,0.636380019 77.8574869,0.00951020522 L79.0317577,0 Z M470.959,876.905 L466.69,876.905 L466.690737,887.38688 C466.690737,920.469168 440.149451,947.344801 407.192688,947.879005 L406.192056,947.887109 L81.1894179,947.887109 C47.7763341,947.887109 20.6907367,920.801336 20.6907367,887.38688 L20.6907367,887.38688 L20.69,877.366 L16.026,877.366 L16.0265484,889.009847 C16.0265484,923.447061 43.6751394,951.43524 77.9898977,951.99156 L79.0317577,952 L407.953916,952 C442.753438,952 470.959126,923.799522 470.959126,889.009847 L470.959126,889.009847 L470.959,876.905 Z M406.192056,15.657129 L81.1894179,15.657129 C49.427862,15.657129 23.6907367,41.3976713 23.6907367,73.1573582 L23.6907367,73.1573582 L23.6907367,887.38688 C23.6907367,919.144487 49.4331927,944.887109 81.1894179,944.887109 L81.1894179,944.887109 L406.192056,944.887109 C437.953612,944.887109 463.690737,919.146567 463.690737,887.38688 L463.690737,887.38688 L463.690737,73.1573582 C463.690737,41.3997519 437.948281,15.657129 406.192056,15.657129 L406.192056,15.657129 Z M243.492837,855.968962 C265.348696,855.968962 283.067496,873.675456 283.067496,895.518914 C283.067496,917.143937 265.7013,934.714322 244.147258,935.063567 L243.492837,935.068865 C221.636978,935.068865 203.918178,917.362371 203.918178,895.518914 C203.918178,873.675456 221.636978,855.968962 243.492837,855.968962 Z M243.492837,859.968962 C223.845495,859.968962 207.918178,875.885218 207.918178,895.518914 C207.918178,915.15261 223.845495,931.068865 243.492837,931.068865 C263.140179,931.068865 279.067496,915.15261 279.067496,895.518914 C279.067496,875.885218 263.140179,859.968962 243.492837,859.968962 Z M243.492837,863.585839 C261.140705,863.585839 275.447411,877.882608 275.447411,895.518914 C275.447411,913.155219 261.140705,927.451988 243.492837,927.451988 C225.844969,927.451988 211.538264,913.155219 211.538264,895.518914 C211.538264,877.882608 225.844969,863.585839 243.492837,863.585839 Z M243.492837,865.585839 C226.949227,865.585839 213.538264,878.987489 213.538264,895.518914 C213.538264,912.050339 226.949227,925.451988 243.492837,925.451988 C260.036447,925.451988 273.447411,912.050339 273.447411,895.518914 C273.447411,878.987489 260.036447,865.585839 243.492837,865.585839 Z M470.959,861.207 L466.69,861.207 L466.69,875.058 L470.959,875.058 L470.959,861.207 Z M20.69,861.669 L16.026,861.669 L16.026,874.596 L20.69,874.596 L20.69,861.669 Z M470.959,94.344 L466.69,94.344 L466.69,859.36 L470.959,859.36 L470.959,94.344 Z M20.69,94.344 L16.026,94.344 L16.026,858.899 L20.69,858.899 L20.69,94.344 Z M446.77822,113.881668 C450.094411,113.881668 452.782715,116.56281 452.782715,119.881744 L452.782715,838.271505 C452.782715,841.585255 450.088246,844.271581 446.77822,844.271581 L41.1314716,844.271581 C37.8152805,844.271581 35.1269764,841.590439 35.1269764,838.271505 L35.1269764,119.881744 C35.1269764,116.567994 37.8214453,113.881668 41.1314716,113.881668 L446.77822,113.881668 Z M446.77822,118.881668 L41.1314716,118.881668 C40.618577,118.881668 40.1920801,119.270967 40.1337688,119.765806 L40.1269764,119.881744 L40.1269764,838.271505 C40.1269764,838.825732 40.5734204,839.271581 41.1314716,839.271581 L446.77822,839.271581 C447.330568,839.271581 447.782715,838.820087 447.782715,838.271505 L447.782715,119.881744 C447.782715,119.327517 447.336271,118.881668 446.77822,118.881668 Z M8.026,294.698 L5.39363543,294.855173 C4.8604684,294.88697 4.38676114,295.040714 4.07137444,295.242764 L4,295.292 L4,360.089 L4.01973538,360.107754 C4.03594489,360.122718 4.05398882,360.138712 4.07389652,360.155546 C4.37967974,360.414112 4.84646097,360.627654 5.36720338,360.722107 L5.56480217,360.7518 L8.026,361.045 L8.026,294.698 Z M8.026,208.366 L5.56480217,208.660421 C4.96551862,208.731903 4.41705062,208.965648 4.07312974,209.255941 L4.01913935,209.30349 L4.01913935,209.30349 L4,209.321 L4,274.115 L4.0753348,274.167915 C4.35267986,274.345981 4.74951755,274.486239 5.19831121,274.539629 L5.39363543,274.557048 L8.026,274.714 L8.026,208.366 Z M478.959,194.914 L478.959,260.776 L481.27679,260.634136 C481.74124,260.605545 482.157726,260.467481 482.439709,260.284971 L482.517,260.229 L482.517,195.458 L482.443648,195.405136 C482.163136,195.224034 481.745967,195.086308 481.27679,195.057426 L478.959,194.914 Z M8.026,131.104 L5.56949042,131.282917 C4.98036661,131.325629 4.44730521,131.528342 4.10629415,131.800843 C4.05138239,131.844722 4.00734067,131.885692 3.97382683,131.921414 L3.938,131.962 L3.938,161.435 L3.97375199,161.476456 C4.00713643,161.512098 4.05100709,161.552971 4.10571094,161.596749 C4.40825767,161.838869 4.86270285,162.02593 5.37489526,162.094593 L5.56949042,162.114669 L8.026,162.292 L8.026,131.104 Z M466.69,92.497 L470.959,92.497 L470.959,77.261 L466.69,77.261 L466.69,92.497 Z M20.69,77.261 L16.026,77.261 L16.026,92.497 L20.69,92.497 L20.69,77.261 Z M407.953916,8 L79.0317577,8 C44.2322359,8 16.0265484,36.2004777 16.0265484,70.9901533 L16.0265484,70.9901533 L16.026,75.415 L20.69,75.415 L20.6907367,73.1573582 C20.6907367,40.0750708 47.2320229,13.1994378 80.1887851,12.6652334 L81.1894179,12.657129 L406.192056,12.657129 C439.605139,12.657129 466.690737,39.742902 466.690737,73.1573582 L466.690737,73.1573582 L466.69,75.415 L470.959,75.415 L470.959126,70.9901533 C470.959126,36.5529387 443.310535,8.56475976 408.995776,8.0084399 L407.953916,8 Z M167.723433,56.6323957 C172.061158,56.6323957 175.577579,60.1463742 175.577579,64.4810863 C175.577579,68.7324386 172.195104,72.1943204 167.972756,72.3258974 L167.723433,72.3297769 C163.385708,72.3297769 159.869288,68.8157984 159.869288,64.4810863 C159.869288,60.1463742 163.385708,56.6323957 167.723433,56.6323957 Z M276.760719,59.7492726 C279.372579,59.7492726 281.491513,61.8705216 281.491513,64.4810863 C281.491513,67.0955866 279.377011,69.2129001 276.760719,69.2129001 L276.760719,69.2129001 L210.224955,69.2129001 C207.613096,69.2129001 205.494161,67.0916511 205.494161,64.4810863 C205.494161,61.866586 207.608663,59.7492726 210.224955,59.7492726 L210.224955,59.7492726 Z M167.723433,60.6323957 C165.594226,60.6323957 163.869288,62.3561356 163.869288,64.4810863 C163.869288,66.5396324 165.488101,68.2216514 167.525045,68.3247673 L167.723433,68.3297769 C169.852641,68.3297769 171.577579,66.6060371 171.577579,64.4810863 C171.577579,62.3561356 169.852641,60.6323957 167.723433,60.6323957 Z M276.760719,62.7492726 L210.224955,62.7492726 C209.26641,62.7492726 208.494161,63.5225488 208.494161,64.4810863 C208.494161,65.4355294 209.270683,66.2129001 210.224955,66.2129001 L210.224955,66.2129001 L276.760719,66.2129001 C277.719264,66.2129001 278.491513,65.4396239 278.491513,64.4810863 C278.491513,63.5266432 277.714991,62.7492726 276.760719,62.7492726 L276.760719,62.7492726 Z M243.492837,32.5480116 C246.341409,32.5480116 248.650914,34.8559128 248.650914,37.7032008 C248.650914,40.5504887 246.341409,42.8583899 243.492837,42.8583899 C240.644265,42.8583899 238.33476,40.5504887 238.33476,37.7032008 C238.33476,34.8559128 240.644265,32.5480116 243.492837,32.5480116 Z M243.492837,34.5480116 C241.748524,34.5480116 240.33476,35.9607935 240.33476,37.7032008 C240.33476,39.445608 241.748524,40.8583899 243.492837,40.8583899 C245.23715,40.8583899 246.650914,39.445608 246.650914,37.7032008 C246.650914,35.9607935 245.23715,34.5480116 243.492837,34.5480116 Z" id="iPhone-8"></path>
            </g>
        </g>
    </g>
</svg>