<?xml version="1.0" encoding="UTF-8"?>
<svg width="405px" height="776px" viewBox="0 0 405 776" version="1.1" xmlns="http://www.w3.org/2000/svg" xmlns:xlink="http://www.w3.org/1999/xlink">
    <!-- Generator: Sketch 64 (93537) - https://sketch.com -->
    <title>iPod Nano 7gen</title>
    <desc>Created with Sketch.</desc>
    <g id="Preview" stroke="none" stroke-width="1" fill="none" fill-rule="evenodd">
        <g id="Gadgets-illustrations" transform="translate(-5438.000000, -2094.000000)" fill="#000000" fill-rule="nonzero">
            <g id="9" transform="translate(5438.000000, 2094.000000)">
                <path d="M382.159119,0 C384.274878,0 386.132151,1.62729489 386.394665,3.71767473 L386.394665,3.71767473 L386.932,8 L395.011798,8 C400.432424,8 404.848036,12.3152892 404.996161,17.6861259 L405,17.9648524 L405,758.073037 C405,765.683383 398.932633,772.339869 391.356608,772.898891 L391.61,772.876 C390.828852,773.011347 389.380437,773.170102 386.891506,773.357256 L386.560932,773.381829 C381.570312,773.748623 373.926934,774.113304 363.0632,774.452918 C332.123409,775.420135 281.596467,776 207,776 C132.403533,776 81.8765908,775.420135 50.9367999,774.452918 C40.0730661,774.113304 32.4296877,773.748623 27.4390676,773.381829 C24.7467887,773.183955 23.2047725,773.017142 22.3977723,772.878075 L22.363,772.872 L22.2653074,772.862422 C14.9683509,772.055326 9.17020943,765.729756 9.00368001,758.397173 L9,758.073037 L9,292.951 L3.82135268,292.363444 C1.6743474,292.063074 5.51651006e-15,290.125481 5.29584966e-15,287.947115 L0,202.749861 C0,200.943038 1.04676644,198.814918 2.47510667,197.718267 L8.60965098,193.773172 C8.73874393,193.674057 8.86915525,193.584976 9.00030678,193.505643 L9.00030678,167.494357 C8.86915525,167.415024 8.73874393,167.325943 8.60965098,167.226828 L8.60965098,167.226828 L2.47510667,163.281733 C1.04676644,162.185082 0,160.056962 0,158.250139 L0,158.250139 L5.29584966e-15,73.0528854 C5.51651006e-15,70.8745186 1.6743474,68.9369258 3.82135268,68.6365556 L3.82135268,68.6365556 L9,68.048 L9,17.9648524 C9,12.5511951 13.3269949,8.15141516 18.7211538,8.00382528 L19.001097,8 L301.067,8 L301.605607,3.71767473 C301.859067,1.69939285 303.611266,0.105769701 305.637646,0.0050554928 L305.841153,0 Z M395.004907,16 L19.0079873,16 C17.8942928,16 17,16.8903531 17,17.9864207 L17,17.9864207 L17,758.051928 C17,761.495818 19.8680327,764.624695 23.2945993,764.925237 L23.2945993,764.925237 L23.5647258,764.94893 L23.765,764.993 C23.869314,765.010452 24.0084653,765.030034 24.1928461,765.053118 L24.3396682,765.07108 C25.1557157,765.168762 26.365017,765.280961 28.0325834,765.403519 C32.896357,765.760982 40.4328667,766.120558 51.1927212,766.456917 C82.0346078,767.421053 132.48261,768 207,768 C281.51739,768 331.965392,767.421053 362.807279,766.456917 C373.567133,766.120558 381.103643,765.760982 385.967417,765.403519 C387.634983,765.280961 388.844284,765.168762 389.660332,765.07108 C389.919356,765.040075 390.10631,765.01435 390.22819,764.994859 L390.22819,764.994859 L390.235,764.993 L390.462415,764.942782 L390.7606,764.92078 C394.12587,764.672467 397,761.519337 397,758.051928 L397,758.051928 L397,17.9864207 C397,16.8935105 396.104721,16 395.004907,16 L395.004907,16 Z M363.226043,30.4486805 C376.449012,30.4486805 387.168347,41.1587339 387.168347,54.3870105 L387.168347,729.47295 C387.168347,742.693725 376.441425,753.41128 363.226043,753.41128 L49.4075734,753.41128 C36.1846038,753.41128 25.465269,742.701227 25.465269,729.47295 L25.465269,54.3870105 C25.465269,41.1662359 36.1921908,30.4486805 49.4075734,30.4486805 L363.226043,30.4486805 Z M363.226043,33.4409684 L49.4075734,33.4409684 C37.9589666,33.4409684 28.6476656,42.6330884 28.4607267,54.0372208 L28.4578616,54.3870105 L28.4578616,729.47295 C28.4578616,741.045853 37.8345871,750.418992 49.4075734,750.418992 L363.226043,750.418992 C374.791472,750.418992 384.175755,741.038321 384.175755,729.47295 L384.175755,54.3870105 C384.175755,42.8141079 374.799029,33.4409684 363.226043,33.4409684 Z M206.316808,635.816032 C231.059686,635.816032 251.116968,655.890712 251.116968,680.653119 C251.116968,705.415526 231.059686,725.490205 206.316808,725.490205 C181.57393,725.490205 161.516648,705.415526 161.516648,680.653119 C161.516648,655.890712 181.57393,635.816032 206.316808,635.816032 Z M206.316808,639.805749 C183.77848,639.805749 165.506772,658.093307 165.506772,680.653119 C165.506772,703.21293 183.77848,721.500488 206.316808,721.500488 C228.855136,721.500488 247.126844,703.21293 247.126844,680.653119 C247.126844,658.093307 228.855136,639.805749 206.316808,639.805749 Z M206.316808,659.877972 C217.781786,659.877972 227.075398,669.179646 227.075398,680.653119 C227.075398,692.126591 217.781786,701.428265 206.316808,701.428265 C194.85183,701.428265 185.558218,692.126591 185.558218,680.653119 C185.558218,669.179646 194.85183,659.877972 206.316808,659.877972 Z M206.316808,662.87026 C196.505243,662.87026 188.55081,670.831593 188.55081,680.653119 C188.55081,690.474645 196.505243,698.435977 206.316808,698.435977 C216.128373,698.435977 224.082806,690.474645 224.082806,680.653119 C224.082806,670.831593 216.128373,662.87026 206.316808,662.87026 Z M356.575048,60.3646138 C359.877914,60.3646138 362.555416,63.0510031 362.555416,66.3478567 L362.555416,608.117169 C362.555416,611.421623 359.877646,614.100412 356.575048,614.100412 L56.0585678,614.100412 C52.7557021,614.100412 50.0782004,611.414023 50.0782004,608.117169 L50.0782004,66.3478567 C50.0782004,63.0434029 52.7559705,60.3646138 56.0585678,60.3646138 L356.575048,60.3646138 Z M356.57,66.348 L356.569925,66.3499323 L56.063,66.349 L56.0636914,608.115094 L56.0636914,608.115094 L356.57,608.115 L356.57,66.348 Z M9,198.417 L4.89034902,200.886905 C4.44553999,201.228421 3.97506442,202.184917 3.97506442,202.749861 L3.97506442,287.947115 C3.97506442,288.137863 4.19034797,288.386994 4.3701535,288.41215 L9,288.928 L9,198.417 Z M9,72.071 L4.3701535,72.5878504 C4.19034797,72.6130056 3.97506442,72.8621366 3.97506442,73.0528854 L3.97506442,73.0528854 L3.97506442,158.250139 C3.97506442,158.815083 4.44553999,159.771579 4.89034902,160.113095 L4.89034902,160.113095 L9,162.582 L9,72.071 Z M382.213252,3.97123894 L305.838261,3.97123894 C305.73956,3.97123894 305.577465,4.11319782 305.565328,4.20977662 L305.565328,4.20977662 L305.09282,7.96951283 L305.088,8 L382.962,8 L382.486185,4.20977662 C382.475591,4.12548152 382.364856,4.01602709 382.268456,3.9818838 L382.213252,3.97123894 Z" id="iPod-Nano-7gen"></path>
            </g>
        </g>
    </g>
</svg>