<?xml version="1.0" encoding="UTF-8"?>
<svg width="464px" height="776px" viewBox="0 0 464 776" version="1.1" xmlns="http://www.w3.org/2000/svg" xmlns:xlink="http://www.w3.org/1999/xlink">
    <!-- Generator: Sketch 64 (93537) - https://sketch.com -->
    <title>iPod Classic</title>
    <desc>Created with Sketch.</desc>
    <g id="Preview" stroke="none" stroke-width="1" fill="none" fill-rule="evenodd">
        <g id="Gadgets-illustrations" transform="translate(-1751.000000, -2094.000000)" fill="#000000" fill-rule="nonzero">
            <g id="6" transform="translate(1751.000000, 2094.000000)">
                <path d="M415.002202,0 C442.062939,0 464,21.935622 464,49.0019367 L464,726.998063 C464,754.061086 442.068419,776 415.002202,776 L48.9977977,776 C21.9370612,776 0,754.064378 0,726.998063 L0,49.0019367 C0,21.9389144 21.9315807,0 48.9977977,0 L415.002202,0 Z M415.002202,8 L48.9977977,8 C26.5784988,8 8.3674702,25.9897449 8.00549155,48.3238305 L8,49.0019367 L8,726.998063 C8,749.645031 26.3542704,768 48.9977977,768 L415.002202,768 C437.647959,768 456,749.64499 456,726.998063 L456,49.0019367 C456,26.3549689 437.64573,8 415.002202,8 Z M413.056885,15 C432.907719,15 449,31.1002812 449,50.9653998 L449,725.0346 C449,744.897742 432.909126,761 413.056885,761 L50.9431149,761 C31.0922807,761 15,744.899719 15,725.0346 L15,50.9653998 C15,31.102258 31.0908736,15 50.9431149,15 L413.056885,15 Z M413.052829,18 L50.9471714,18 C32.9320067,18 18.2953454,32.4660754 18.0044137,50.4228227 L18,50.9680237 L18,725.031976 C18,743.240969 32.7502306,758 50.9471714,758 L413.052829,758 C431.249965,758 446,743.240205 446,725.031976 L446,50.9680237 C446,32.7590312 431.249769,18 413.052829,18 Z M232,402 C312.080779,402 377,466.918201 377,547 C377,627.081799 312.080779,692 232,692 C151.919221,692 87,627.081799 87,547 C87,466.918201 151.919221,402 232,402 Z M232,408 C155.231911,408 93,470.23293 93,547 C93,623.76707 155.231911,686 232,686 C308.768089,686 371,623.76707 371,547 C371,470.23293 308.768089,408 232,408 Z M238,655 L238,668 L235,668 L235,655 L238,655 Z M244,655 L244,668 L241,668 L241,655 L244,655 Z M220,655 L231,661.5 L220,668 L220,655 Z M231.998037,491 C262.924971,491 287.996074,516.072126 287.996074,547 C287.996074,577.927874 262.924971,603 231.998037,603 C201.071103,603 176,577.927874 176,547 C176,516.072126 201.071103,491 231.998037,491 Z M232,495 C203.281266,495 180,518.282 180,547.001964 C180,575.721927 203.281266,599.003927 232,599.003927 C260.718734,599.003927 284,575.721927 284,547.001964 C284,518.282 260.718734,495 232,495 Z M232,501 C257.405098,501 278,521.594902 278,547 C278,572.405098 257.405098,593 232,593 C220.5637,593 209.773813,588.808341 201.408292,581.353883 C200.58363,580.619032 200.510824,579.354797 201.245675,578.530134 C201.980526,577.705472 203.244761,577.632665 204.069423,578.367516 C211.709165,585.175238 221.55461,589 232,589 C255.195959,589 274,570.195959 274,547 C274,523.804041 255.195959,505 232,505 C230.895431,505 230,504.104569 230,503 C230,501.895431 230.895431,501 232,501 Z M134,540.5 L134,553.5 L123,547 L134,540.5 Z M112,540.5 L112,546.999 L123,540.5 L123,553.5 L112,547.001 L112,553.5 L109,553.5 L109,540.5 L112,540.5 Z M330,540.5 L341.111,547 L330,553.5 L330,540.5 Z M341.111111,540.5 L352.222,547 L341.111111,553.5 L341.111111,540.5 Z M355,540.5 L355,553.5 L352.222222,553.5 L352.222222,540.5 L355,540.5 Z M248.36961,426 L248.36961,433.48073 C248.36961,435.06288 249.371663,436.125761 251.129363,436.125761 C252.887064,436.125761 253.880903,435.06288 253.880903,433.48073 L253.880903,433.48073 L253.880903,426 L256,426 L256,433.675456 C256,436.231237 254.12731,438 251.129363,438 C248.131417,438 246.258727,436.231237 246.258727,433.675456 L246.258727,433.675456 L246.258727,426 L248.36961,426 Z M210.480493,426 L214.045175,434.527383 L214.193018,434.527383 L217.7577,426 L220.238193,426 L220.238193,437.707911 L218.26694,437.707911 L218.26694,429.472617 L218.151951,429.472617 L214.874743,437.25355 L213.36345,437.25355 L210.086242,429.472617 L209.971253,429.472617 L209.971253,437.707911 L208,437.707911 L208,426 L210.480493,426 Z M230.833676,426 L230.833676,427.809331 L225.281314,427.809331 L225.281314,430.916836 L230.529774,430.916836 L230.529774,432.62069 L225.281314,432.62069 L225.281314,435.89858 L230.833676,435.89858 L230.833676,437.707911 L223.162218,437.707911 L223.162218,426 L230.833676,426 Z M235.301848,426 L241.117043,433.959432 L241.256674,433.959432 L241.256674,426 L243.293634,426 L243.293634,437.707911 L241.462012,437.707911 L235.646817,429.740365 L235.507187,429.740365 L235.507187,437.707911 L233.462012,437.707911 L233.462012,426 L235.301848,426 Z M413.303621,42 C418.106498,42 422,45.9073353 422,50.7383494 L422,323.261651 C422,328.087708 418.115229,332 413.303621,332 L50.6963792,332 C45.8935016,332 42,328.092665 42,323.261651 L42,50.7383494 C42,45.9122923 45.8847709,42 50.6963792,42 L413.303621,42 Z M413.098597,48 L50.9014029,48 C49.3503361,48 48.0927518,49.2086804 48.0049028,50.7379983 L48,50.9091969 L48,323.090803 C48,324.698927 49.295491,326 50.9014029,326 L413.098597,326 C414.707111,326 416,324.70013 416,323.090803 L416,50.9091969 C416,49.3010729 414.704509,48 413.098597,48 Z" id="iPod-Classic"></path>
            </g>
        </g>
    </g>
</svg>