<?xml version="1.0" encoding="UTF-8"?>
<svg width="474px" height="776px" viewBox="0 0 474 776" version="1.1" xmlns="http://www.w3.org/2000/svg" xmlns:xlink="http://www.w3.org/1999/xlink">
    <!-- Generator: Sketch 64 (93537) - https://sketch.com -->
    <title>iPod 1gen</title>
    <desc>Created with Sketch.</desc>
    <g id="Preview" stroke="none" stroke-width="1" fill="none" fill-rule="evenodd">
        <g id="Gadgets-illustrations" transform="translate(-3015.000000, -2094.000000)" fill="#000000" fill-rule="nonzero">
            <g id="7" transform="translate(3015.000000, 2094.000000)">
                <path d="M420.807169,-1.64334324e-10 C450.185734,-1.64334324e-10 474,23.730901 474,53.0089703 L474,53.0089703 L474,722.99103 C474,752.264847 450.1802,776 420.807169,776 L420.807169,776 L53.192831,776 C23.8142656,776 0,752.269099 0,722.99103 L0,722.99103 L0,53.0089703 C0,23.735153 23.8197997,-1.64334324e-10 53.192831,-1.64334324e-10 L53.192831,-1.64334324e-10 Z M56,7.999 L53.1698205,8 C28.2275559,8 8,28.1532108 8,53.0079882 L8,53.0079882 L8,722.992012 C8,747.851136 28.2221167,768 53.1698205,768 L53.1698205,768 L420.83018,768 C445.772444,768 466,747.846789 466,722.992012 L466,722.992012 L466,53.0079882 C466,28.1488635 445.777883,8 420.83018,8 L420.83018,8 L418,7.999 L418,15 L419.445217,15 C441.071273,15 458.645381,32.3109052 458.9947,53.7933694 L459,54.4456165 L459,721.554384 C459,743.34043 441.292385,761 419.445217,761 L419.445217,761 L54.5547825,761 C32.7102817,761 15,743.337613 15,721.554384 L15,721.554384 L15,54.4456165 C15,32.6595699 32.7076146,15 54.5547825,15 L54.5547825,15 L56,15 L56,7.999 Z M419.449121,18 L54.5508794,18 C34.3627762,18 18,34.3178676 18,54.4489626 L18,54.4489626 L18,721.551037 C18,741.679322 34.3654494,758 54.5508794,758 L54.5508794,758 L419.449121,758 C439.637224,758 456,741.682132 456,721.551037 L456,721.551037 L456,54.4489626 C456,34.3206784 439.634551,18 419.449121,18 L419.449121,18 Z M236,332 C345.350579,332 434,420.645813 434,530 C434,638.260645 347.114703,726.225013 239.274239,727.973474 L236,728 C126.649421,728 38,639.354187 38,530 C38,420.645813 126.649421,332 236,332 Z M238.480489,679.979905 L236,680 C195.453407,680 158.663824,663.912147 131.666838,637.771181 L101.964841,667.472227 C136.564818,701.212465 183.854814,722 236,722 C288.588317,722 336.238576,700.857657 370.9145,666.609248 L341.215616,636.909695 C314.687812,663.019676 278.487656,679.331252 238.480489,679.979905 Z M249.898557,694.450195 L249.898557,707.355942 L247.129326,707.355942 L247.129326,694.450195 L249.898557,694.450195 Z M221.283172,694.450195 L232.360095,700.903069 L221.283172,707.355942 L221.283172,694.450195 Z M244.360095,694.450195 L244.360095,707.355942 L241.590865,707.355942 L241.590865,694.450195 L244.360095,694.450195 Z M236,384 C155.366427,384 90,449.366427 90,530 C90,610.633573 155.366427,676 236,676 C316.633573,676 382,610.633573 382,530 C382,449.366427 316.633573,384 236,384 Z M44,530 C44,582.814425 65.3245402,630.648238 99.8332404,665.361056 L129.532241,635.66276 C102.623877,608.550748 86,571.216995 86,530 C86,489.009678 102.441534,451.860003 129.089229,424.785473 L99.3907519,395.0855 C65.1423426,429.761424 44,477.411683 44,530 Z M373.472227,395.964841 L343.771259,425.66691 C369.911965,452.663523 386,489.452726 386,530 C386,570.773747 369.731747,607.747324 343.332301,634.784533 L373.032591,664.484532 C407.031799,629.845202 428,582.371294 428,530 C428,477.854814 407.212465,430.564818 373.472227,395.964841 Z M236,476 C265.822773,476 290,500.176018 290,530 C290,559.823982 265.822773,584 236,584 C206.177227,584 182,559.823982 182,530 C182,500.176018 206.177227,476 236,476 Z M236,480 C208.385158,480 186,502.386368 186,530 C186,557.613632 208.385158,580 236,580 C263.614842,580 286,557.613632 286,530 C286,502.386368 263.614842,480 236,480 Z M54.7777778,523.5 L54.7777778,536.5 L52,536.5 L52,523.5 L54.7777778,523.5 Z M395,523.5 L406.111,530 L395,536.5 L395,523.5 Z M406.111111,523.5 L417.222,530 L406.111111,536.5 L406.111111,523.5 Z M420,523.5 L420,536.5 L417.222222,536.5 L417.222222,523.5 L420,523.5 Z M65.8888889,523.5 L65.8888889,536.5 L54.7777778,530 L65.8888889,523.5 Z M77,523.5 L77,536.5 L65.8888889,530 L77,523.5 Z M236,338 C183.628706,338 136.154798,358.968201 101.515468,392.967409 L131.215379,422.667791 C158.252964,396.268072 195.226933,380 236,380 C277.216302,380 314.550459,396.623688 341.662849,423.532331 L371.361056,393.83324 C336.648238,359.32454 288.814425,338 236,338 Z M252.36961,354 L252.36961,361.48073 C252.36961,363.06288 253.371663,364.125761 255.129363,364.125761 C256.887064,364.125761 257.880903,363.06288 257.880903,361.48073 L257.880903,361.48073 L257.880903,354 L260,354 L260,361.675456 C260,364.231237 258.12731,366 255.129363,366 C252.131417,366 250.258727,364.231237 250.258727,361.675456 L250.258727,361.675456 L250.258727,354 L252.36961,354 Z M214.480493,354 L218.045175,362.527383 L218.193018,362.527383 L221.7577,354 L224.238193,354 L224.238193,365.707911 L222.26694,365.707911 L222.26694,357.472617 L222.151951,357.472617 L218.874743,365.25355 L217.36345,365.25355 L214.086242,357.472617 L213.971253,357.472617 L213.971253,365.707911 L212,365.707911 L212,354 L214.480493,354 Z M234.833676,354 L234.833676,355.809331 L229.281314,355.809331 L229.281314,358.916836 L234.529774,358.916836 L234.529774,360.62069 L229.281314,360.62069 L229.281314,363.89858 L234.833676,363.89858 L234.833676,365.707911 L227.162218,365.707911 L227.162218,354 L234.833676,354 Z M239.301848,354 L245.117043,361.959432 L245.256674,361.959432 L245.256674,354 L247.293634,354 L247.293634,365.707911 L245.462012,365.707911 L239.646817,357.740365 L239.507187,357.740365 L239.507187,365.707911 L237.462012,365.707911 L237.462012,354 L239.301848,354 Z M389.004461,40 C393.974487,40 398,44.0245764 398,48.9964181 L398,48.9964181 L398,295.003582 C398,299.971661 393.973181,304 389.004461,304 L389.004461,304 L84.9955389,304 C80.0255134,304 76,299.975424 76,295.003582 L76,295.003582 L76,48.9964181 C76,44.0283394 80.0268189,40 84.9955389,40 L84.9955389,40 Z M389.004461,46 L84.9955389,46 C83.3416196,46 82,47.3420984 82,48.9989672 L82,48.9989672 L82,295.001033 C82,296.660846 83.3394939,298 84.9955389,298 L84.9955389,298 L389.004461,298 C390.65838,298 392,296.657902 392,295.001033 L392,295.001033 L392,48.9989672 C392,47.3391544 390.660506,46 389.004461,46 L389.004461,46 Z M414,7.999 L60,7.999 L60,15 L414,15 L414,7.999 Z" id="iPod-1gen"></path>
            </g>
        </g>
    </g>
</svg>