<?xml version="1.0" encoding="UTF-8"?>
<svg width="441px" height="910px" viewBox="0 0 441 910" version="1.1" xmlns="http://www.w3.org/2000/svg" xmlns:xlink="http://www.w3.org/1999/xlink">
    <!-- Generator: Sketch 64 (93537) - https://sketch.com -->
    <title>iPod Touch</title>
    <desc>Created with Sketch.</desc>
    <g id="Gadgets-illustrations" stroke="none" stroke-width="1" fill="none" fill-rule="evenodd">
        <g transform="translate(-6643.000000, -1960.000000)" fill="#000000" fill-rule="nonzero" id="10">
            <g transform="translate(6643.000000, 1960.000000)">
                <path d="M359.792851,0.488721805 C362.603871,0.488721805 365.430499,2.59658698 366.227985,5.28555153 L366.227985,5.28555153 L366.669914,6.7767218 L368.649098,6.77720458 C408.20886,6.77720458 440.351412,38.5154738 440.990307,77.9135504 L441,79.1097513 L441,837.303616 C441,877.252851 408.609894,909.636163 368.649098,909.636163 L368.649098,909.636163 L80.1085926,909.636163 C40.1492371,909.636163 7.75769027,877.253478 7.75769027,837.303616 L7.75769027,837.303616 L7.75691353,294.415722 L4.9888207,293.689362 C2.53978626,293.046355 0.605660445,290.517554 0.49400688,287.872175 L0.488913525,287.631414 L0.488913525,234.429298 C0.488913525,231.696125 2.46879197,229.032997 4.9888207,228.37135 L4.9888207,228.37135 L7.75691353,227.643722 L7.75691353,209.073722 L4.9888207,208.347701 C2.53978626,207.704695 0.605660445,205.175893 0.49400688,202.530515 L0.488913525,202.289754 L0.488913525,149.087637 C0.488913525,146.354465 2.46879197,143.691336 4.9888207,143.029689 L4.9888207,143.029689 L7.75691353,142.301722 L7.75769027,79.1097513 C7.75769027,39.5600084 39.5032333,7.4256274 78.9120647,6.78689476 L80.1085926,6.77720458 L303.095914,6.7767218 L303.538293,5.28555153 C304.313753,2.67085536 307.003044,0.609499371 309.732533,0.493842046 L309.973427,0.488721805 Z M368.649098,14.5967535 L80.1085926,14.5967535 C44.4684276,14.5967535 15.5803067,43.4788144 15.5803067,79.1097513 L15.5803067,79.1097513 L15.5803067,837.303616 C15.5803067,872.935068 44.4697565,901.816614 80.1085926,901.816614 L80.1085926,901.816614 L368.649098,901.816614 C404.289263,901.816614 433.177384,872.934553 433.177384,837.303616 L433.177384,837.303616 L433.177384,79.1097513 C433.177384,43.4782993 404.287934,14.5967535 368.649098,14.5967535 L368.649098,14.5967535 Z M367.535306,18.930349 C401.287142,18.930349 428.64731,46.2762171 428.64731,80.0119041 L428.64731,80.0119041 L428.64731,836.570598 C428.64731,870.305087 401.286578,897.652154 367.535306,897.652154 L367.535306,897.652154 L81.0276054,897.652154 C47.2757702,897.652154 19.9156023,870.306285 19.9156023,836.570598 L19.9156023,836.570598 L19.9156023,80.0119041 C19.9156023,46.2774156 47.2763338,18.930349 81.0276054,18.930349 L81.0276054,18.930349 Z M367.535306,21.8626798 L81.0276054,21.8626798 C48.8963802,21.8626798 22.8490834,47.8969677 22.8490834,80.0119041 L22.8490834,80.0119041 L22.8490834,836.570598 C22.8490834,868.686718 48.8958013,894.719823 81.0276054,894.719823 L81.0276054,894.719823 L367.535306,894.719823 C399.666532,894.719823 425.713828,868.685535 425.713828,836.570598 L425.713828,836.570598 L425.713828,80.0119041 C425.713828,47.8957844 399.667111,21.8626798 367.535306,21.8626798 L367.535306,21.8626798 Z M224.378845,803.560914 C244.400491,803.560914 260.631242,819.785301 260.631242,839.799095 C260.631242,859.612752 244.723483,875.71241 224.978345,876.032421 L224.378845,876.037276 C204.357199,876.037276 188.126448,859.81289 188.126448,839.799095 C188.126448,819.785301 204.357199,803.560914 224.378845,803.560914 Z M224.378845,807.470689 C206.517355,807.470689 192.037756,821.944609 192.037756,839.799095 C192.037756,857.475036 206.229211,871.837685 223.844026,872.123171 L224.378845,872.127502 C242.240335,872.127502 256.719934,857.653581 256.719934,839.799095 C256.719934,821.944609 242.240335,807.470689 224.378845,807.470689 Z M231.169771,827.137562 C234.414761,827.137562 237.045345,829.764043 237.045345,833.010832 L237.045345,846.587359 C237.045345,849.831076 234.417834,852.460628 231.169771,852.460628 L217.587919,852.460628 C214.342929,852.460628 211.712345,849.834148 211.712345,846.587359 L211.712345,833.010832 C211.712345,829.767115 214.339856,827.137562 217.587919,827.137562 L231.169771,827.137562 Z M231.169771,830.069893 L217.587919,830.069893 C216.019366,830.069893 214.740184,831.293018 214.650814,832.8379 L214.645826,833.010832 L214.645826,846.587359 C214.645826,848.213368 215.961747,849.528298 217.587919,849.528298 L231.169771,849.528298 C232.796419,849.528298 234.111864,848.212893 234.111864,846.587359 L234.111864,833.010832 C234.111864,831.384823 232.795943,830.069893 231.169771,830.069893 Z M403.274966,132.936264 C406.511393,132.936264 409.135036,135.557365 409.135036,138.809135 L409.135036,777.604233 C409.135036,780.847729 406.502158,783.477103 403.274966,783.477103 L45.4827247,783.477103 C42.2462969,783.477103 39.6226539,780.856003 39.6226539,777.604233 L39.6226539,138.809135 C39.6226539,135.565638 42.2555321,132.936264 45.4827247,132.936264 L403.274966,132.936264 Z M403.269914,138.800722 L45.4827247,138.800926 L45.4905973,138.803797 L45.4896162,138.809135 L45.4896162,777.604233 L45.4869135,777.611722 L403.274966,777.612442 C403.263161,777.612442 403.268074,777.607523 403.268074,777.604233 L403.268074,138.809135 L403.269914,138.800722 Z M7.75691353,230.819722 L5.70034786,231.359916 C4.4862159,231.678693 3.42239468,233.109636 3.42239468,234.429298 L3.42239468,234.429298 L3.42239468,287.631414 C3.42239468,288.950324 4.48417666,290.381484 5.70034786,290.700796 L5.70034786,290.700796 L7.75691353,291.240722 L7.75691353,230.819722 Z M7.75691353,145.477722 L5.70034786,146.018255 C4.4862159,146.337032 3.42239468,147.767975 3.42239468,149.087637 L3.42239468,149.087637 L3.42239468,202.289754 C3.42239468,203.608664 4.48417666,205.039823 5.70034786,205.359135 L5.70034786,205.359135 L7.75691353,205.898722 L7.75691353,145.477722 Z M224.391634,56.7585967 C229.522004,56.7585967 233.680991,60.9159526 233.680991,66.044311 C233.680991,71.1726694 229.522004,75.3300253 224.391634,75.3300253 C219.261263,75.3300253 215.102277,71.1726694 215.102277,66.044311 C215.102277,60.9159526 219.261263,56.7585967 224.391634,56.7585967 Z M224.391634,60.6683711 C221.421419,60.6683711 219.013585,63.0752614 219.013585,66.044311 C219.013585,69.0133606 221.421419,71.4202508 224.391634,71.4202508 C227.361848,71.4202508 229.769682,69.0133606 229.769682,66.044311 C229.769682,63.0752614 227.361848,60.6683711 224.391634,60.6683711 Z M359.792851,3.42105263 L309.973427,3.42105263 C308.460796,3.42105263 306.779532,4.67336399 306.350783,6.11901858 L306.350783,6.11901858 L306.154914,6.7767218 L363.609914,6.7767218 L363.415495,6.11901858 C363.004467,4.73311509 361.43787,3.52170088 359.97507,3.42700519 L359.792851,3.42105263 Z" id="iPod-Touch"></path>
            </g>
        </g>
    </g>
</svg>