<?xml version="1.0" encoding="UTF-8"?>
<svg width="352px" height="776px" viewBox="0 0 352 776" version="1.1" xmlns="http://www.w3.org/2000/svg" xmlns:xlink="http://www.w3.org/1999/xlink">
    <!-- Generator: Sketch 64 (93537) - https://sketch.com -->
    <title>iPod Nano 1gen</title>
    <desc>Created with Sketch.</desc>
    <g id="Preview" stroke="none" stroke-width="1" fill="none" fill-rule="evenodd">
        <g id="Gadgets-illustrations" transform="translate(-4287.000000, -2094.000000)" fill="#000000" fill-rule="nonzero">
            <g id="8" transform="translate(4287.000000, 2094.000000)">
                <path d="M313.002581,0 C334.540382,0 352,17.4582318 352,38.9950256 L352,38.9950256 L352,737.004974 C352,758.539435 334.536181,776 313.002581,776 L313.002581,776 L38.9974192,776 C17.4596179,776 0,758.541768 0,737.004974 L0,737.004974 L0,38.9950256 C0,17.4605646 17.4638188,0 38.9974192,0 L38.9974192,0 Z M313.002581,8 L38.9974192,8 C21.8817631,8 8,21.8791764 8,38.9950256 L8,38.9950256 L8,737.004974 C8,754.123348 21.8777538,768 38.9974192,768 L38.9974192,768 L313.002581,768 C330.118237,768 344,754.120824 344,737.004974 L344,737.004974 L344,38.9950256 C344,21.876652 330.122246,8 313.002581,8 L313.002581,8 Z M314.005398,12 C328.36182,12 340,23.6424046 340,37.9946288 L340,738.005371 C340,752.361808 328.350426,764 314.005398,764 L37.994602,764 C23.6381797,764 12,752.357595 12,738.005371 L12,37.9946288 C12,23.6381918 23.6495738,12 37.994602,12 L314.005398,12 Z M314.005398,14 L37.994602,14 C24.8825183,14 14.2152509,24.5329684 14.0032168,37.5979534 L14,37.9946288 L14,738.005371 C14,751.254531 24.7442546,762 37.994602,762 L314.005398,762 C327.249927,762 338,751.25317 338,738.005371 L338,37.9946288 C338,24.7454685 327.255745,14 314.005398,14 Z M176,367 C250.006373,367 310,426.99406 310,501 C310,574.265881 251.200246,633.798718 178.215941,634.982048 L176,635 C101.993627,635 42,575.00594 42,501 C42,426.99406 101.993627,367 176,367 Z M176,373 C105.307552,373 48,430.307552 48,501 C48,571.692448 105.307552,629 176,629 C246.692448,629 304,571.692448 304,501 C304,430.307552 246.692448,373 176,373 Z M163,598 L175.5,605.5 L163,613 L163,598 Z M183,598 L183,613 L180,613 L180,598 L183,598 Z M189,598 L189,613 L186,613 L186,598 L189,598 Z M175.998037,445 C206.924971,445 231.996074,470.072126 231.996074,501 C231.996074,531.927874 206.924971,557 175.998037,557 C145.071103,557 120,531.927874 120,501 C120,470.072126 145.071103,445 175.998037,445 Z M176,449 C147.281266,449 124,472.282 124,501.001964 C124,529.721927 147.281266,553.003927 176,553.003927 C204.718734,553.003927 228,529.721927 228,501.001964 C228,472.282 204.718734,449 176,449 Z M176,455 C201.405098,455 222,475.594902 222,501 C222,526.405098 201.405098,547 176,547 C164.5637,547 153.773813,542.808341 145.408292,535.353883 C144.58363,534.619032 144.510824,533.354797 145.245675,532.530134 C145.980526,531.705472 147.244761,531.632665 148.069423,532.367516 C155.709165,539.175238 165.55461,543 176,543 C199.195959,543 218,524.195959 218,501 C218,477.804041 199.195959,459 176,459 C174.895431,459 174,458.104569 174,457 C174,455.895431 174.895431,455 176,455 Z M92,493.5 L92,508.5 L79.5,501 L92,493.5 Z M67,493.5 L67,500.998 L79.5,493.5 L79.5,508.5 L67,501 L67,508.5 L64,508.5 L64,493.5 L67,493.5 Z M260,493.5 L272.499,501 L260,508.5 L260,493.5 Z M288,493.5 L288,508.5 L285,508.5 L285,501.001 L272.5,508.5 L272.5,493.5 L285,500.999 L285,493.5 L288,493.5 Z M196.462012,391 L196.462012,400.350913 C196.462012,402.3286 197.714579,403.657201 199.911704,403.657201 C202.10883,403.657201 203.351129,402.3286 203.351129,400.350913 L203.351129,400.350913 L203.351129,391 L206,391 L206,400.59432 C206,403.789047 203.659138,406 199.911704,406 C196.164271,406 193.823409,403.789047 193.823409,400.59432 L193.823409,400.59432 L193.823409,391 L196.462012,391 Z M149.100616,391 L153.556468,401.659229 L153.741273,401.659229 L158.197125,391 L161.297741,391 L161.297741,405.634888 L158.833676,405.634888 L158.833676,395.340771 L158.689938,395.340771 L154.593429,405.066937 L152.704312,405.066937 L148.607803,395.340771 L148.464066,395.340771 L148.464066,405.634888 L146,405.634888 L146,391 L149.100616,391 Z M174.542094,391 L174.542094,393.261663 L167.601643,393.261663 L167.601643,397.146045 L174.162218,397.146045 L174.162218,399.275862 L167.601643,399.275862 L167.601643,403.373225 L174.542094,403.373225 L174.542094,405.634888 L164.952772,405.634888 L164.952772,391 L174.542094,391 Z M180.12731,391 L187.396304,400.94929 L187.570842,400.94929 L187.570842,391 L190.117043,391 L190.117043,405.634888 L187.827515,405.634888 L180.558522,395.675456 L180.383984,395.675456 L180.383984,405.634888 L177.827515,405.634888 L177.827515,391 L180.12731,391 Z M307.985037,38 C311.302625,38 314,40.6988125 314,44.0097746 L314,44.0097746 L314,241.990225 C314,245.312517 311.310054,248 307.985037,248 L307.985037,248 L44.0149628,248 C40.6973752,248 38,245.301188 38,241.990225 L38,241.990225 L38,44.0097746 C38,40.6874835 40.6899462,38 44.0149628,38 L44.0149628,38 Z M307.998941,44 C307.998941,44.0115547 307.993349,44.0059596 307.995982,44.0059596 L307.995982,44.0059596 L44.0040178,44.0059596 L44.0040178,44.0059596 L44.001,44.004 L44.0010588,242 C44.0010588,241.994223 44.0024569,241.992733 44.0035257,241.992687 L44.0040178,241.99404 L307.995982,241.99404 L307.995982,241.99404 L307.998,241.996 Z" id="iPod-Nano-1gen"></path>
            </g>
        </g>
    </g>
</svg>