<?xml version="1.0" encoding="UTF-8"?>
<svg width="1651px" height="958px" viewBox="0 0 1651 958" version="1.1" xmlns="http://www.w3.org/2000/svg" xmlns:xlink="http://www.w3.org/1999/xlink">
    <!-- Generator: Sketch 64 (93537) - https://sketch.com -->
    <title>Macbook Pro</title>
    <desc>Created with Sketch.</desc>
    <g id="Gadgets-illustrations" stroke="none" stroke-width="1" fill="none" fill-rule="evenodd">
        <g transform="translate(-5678.000000, -4562.000000)" fill="#000000" fill-rule="nonzero" id="20">
            <g transform="translate(5678.000000, 4562.000000)">
                <path d="M1444.8299,0 C1472.99096,0 1495.82251,22.8374439 1495.8249,51.0054942 C1495.82494,51.3725301 1495.82495,51.5393646 1495.82501,52.1434917 L1495.82599,63.2672992 C1495.826,63.3719669 1495.82601,63.4789421 1495.82602,63.5883414 L1495.8269,73.6655437 C1495.82759,81.6716241 1495.82832,90.3450117 1495.82909,99.6354606 L1495.82984,108.619962 C1495.8333,150.843348 1495.83676,196.38206 1495.84002,243.803655 L1495.84099,257.909782 C1495.84571,327.958836 1495.84956,396.16203 1495.85226,460.432621 L1495.85287,475.338145 C1495.86244,716.863071 1495.85391,863.412687 1495.82078,869.676833 C1495.76661,879.919194 1493.84877,888.867844 1490.12567,894.887199 L1641.99096,894.886356 C1646.96186,894.886356 1651,898.913984 1651,903.877721 L1651,903.877721 L1651,923.715994 C1651,928.044181 1648.03429,932.629821 1644.08767,934.415805 L1644.08767,934.415805 L1626.56997,942.343182 C1612.40499,948.753333 1588.61777,954.542816 1573.08953,955.359522 L1573.08953,955.359522 L1534.50315,957.388971 L1534.29306,957.394492 L119.788324,957.394492 C109.668205,957.394492 99.5971332,957.082089 90.0350439,956.561377 C86.6871265,956.379063 83.6406609,956.183636 80.9534286,955.988043 C80.0107824,955.919431 79.1797076,955.855637 78.4674356,955.798277 C78.0367949,955.763597 77.739464,955.738588 77.6662061,955.731296 C62.1621349,954.701107 38.4329142,948.643994 24.3239201,942.115369 L24.3239201,942.115369 L6.86608691,934.037143 C2.94274629,932.221704 9.09494702e-12,927.629179 9.09494702e-12,923.313237 L9.09494702e-12,923.313237 L9.09494702e-12,903.876564 C9.09494702e-12,898.908009 4.03678037,894.886356 9.00904057,894.886356 L9.00904057,894.886356 L160.314791,894.887247 C159.542556,893.289498 158.875041,891.4847 158.302276,889.502805 C156.654901,883.802521 155.820853,876.528565 155.820853,869.971417 L155.820853,869.971417 L155.820853,51.0094715 C155.820853,22.8385515 178.650882,0 206.811785,0 L206.811785,0 Z M1641.7062,926.43958 L9.69524387,926.439354 C9.86958922,926.579521 10.0480378,926.694562 10.2256699,926.776757 L10.2256699,926.776757 L27.6835032,934.854984 C40.9018479,940.97148 63.672051,946.783794 78.2801352,947.755328 C78.4187257,947.767456 78.6976396,947.790916 79.1096055,947.824092 C79.8016779,947.879826 80.6122951,947.94205 81.5341813,948.00915 C84.1741846,948.201306 87.1722313,948.393627 90.4700461,948.573212 C99.8957631,949.086498 109.824695,949.394492 119.788324,949.394492 L119.788324,949.394492 L1534.196,949.394 L1572.66935,947.370564 C1586.96475,946.618699 1609.26845,941.234997 1622.61206,935.349419 L1623.27169,935.054741 L1640.78939,927.127364 C1641.10116,926.98628 1641.41587,926.742888 1641.7062,926.43958 Z M712.239,902.886 L9.00904057,902.886356 C8.44834895,902.886356 8,903.333025 8,903.876564 L8,903.876564 L8,923.313237 C8,923.655965 8.092855,924.045291 8.25119332,924.438262 L1642.88613,924.438351 C1642.95939,924.185774 1643,923.940865 1643,923.715994 L1643,923.715994 L1643,903.877721 C1643,903.336936 1642.54824,902.886356 1641.99096,902.886356 L1641.99096,902.886356 L940.492,902.886 L939.260919,907.791888 C938.096342,912.430328 933.283038,916.190526 928.500364,916.190526 L724.230932,916.190526 C719.452619,916.190526 714.636323,912.435779 713.470377,907.791888 L712.239,902.886 Z M936.368,902.886 L716.362,902.886 L717.349968,906.817836 C718.068909,909.681336 721.284908,912.190526 724.230932,912.190526 L928.500364,912.190526 C931.446789,912.190526 934.662791,909.679727 935.381329,906.817836 L936.368,902.886 Z M1444.8299,8 L206.811785,8 C183.069829,8 163.820853,27.2561612 163.820853,51.0094715 L163.820853,51.0094715 L163.820853,869.971417 C163.820853,883.048982 167.241845,894.886379 171.011717,894.886371 L171.011717,894.886371 L298.499,894.886 L298.5,892.449864 C298.5,889.658439 300.739657,887.395543 303.493295,887.395543 L1347.50671,887.395543 C1350.26443,887.395543 1352.5,889.660444 1352.5,892.449864 L1352.499,894.886 L1477.08756,894.886371 C1483.08736,894.886346 1487.64454,884.698372 1487.81686,870.106738 L1487.82089,869.63452 C1487.8539,863.394318 1487.86243,716.678905 1487.85287,475.327433 L1487.85209,456.410947 C1487.84934,391.977477 1487.84544,323.65487 1487.84069,253.529874 L1487.84002,243.804205 C1487.83676,196.382647 1487.8333,150.84397 1487.82984,108.620618 C1487.82879,95.8901543 1487.82781,84.2005392 1487.8269,73.6662339 L1487.82602,63.5890432 C1487.82601,63.4796441 1487.826,63.3726691 1487.82599,63.2680015 L1487.82501,52.1442136 C1487.825,52.1106509 1487.825,52.0784379 1487.825,52.0474653 L1487.8249,51.006201 C1487.82288,27.255522 1468.57233,8 1444.8299,8 L1444.8299,8 Z M1443.46886,12.9128364 C1465.00943,12.9128364 1482.47313,30.3725923 1482.47313,51.9068425 L1482.47313,51.9068425 L1482.47313,855.913214 C1482.47313,867.514353 1473.07678,876.912836 1461.47121,876.912836 L1461.47121,876.912836 L189.47505,876.912836 C177.876096,876.912836 168.47313,867.510892 168.47313,855.913214 L168.47313,855.913214 L168.47313,51.9068425 C168.47313,30.3685819 185.931352,12.9128364 207.477396,12.9128364 L207.477396,12.9128364 Z M1443.46886,14.9128364 L207.477396,14.9128364 C187.035858,14.9128364 170.47313,31.4732149 170.47313,51.9068425 L170.47313,51.9068425 L170.47313,855.913214 C170.47313,866.406274 178.980617,874.912836 189.47505,874.912836 L189.47505,874.912836 L1461.47121,874.912836 C1471.97211,874.912836 1480.47313,866.409885 1480.47313,855.913214 L1480.47313,855.913214 L1480.47313,51.9068425 C1480.47313,31.4772628 1463.90496,14.9128364 1443.46886,14.9128364 L1443.46886,14.9128364 Z M1439.50261,64.7688877 C1443.9151,64.7688877 1447.5,68.356147 1447.5,72.7590316 L1447.5,840.778744 C1447.5,845.194382 1443.92284,848.768888 1439.50261,848.768888 L211.497389,848.768888 C207.084898,848.768888 203.5,845.181628 203.5,840.778744 L203.5,72.7590316 C203.5,68.3433935 207.077162,64.7688877 211.497389,64.7688877 L1439.50261,64.7688877 Z M1439.50261,68.7688877 L211.497389,68.7688877 C209.350584,68.7688877 207.608486,70.4487068 207.504876,72.5598832 L207.5,72.7590316 L207.5,840.778744 C207.5,842.96814 209.289692,844.768888 211.497389,844.768888 L1439.50261,844.768888 C1441.7165,844.768888 1443.5,842.982439 1443.5,840.778744 L1443.5,72.7590316 C1443.5,70.5696352 1441.71031,68.7688877 1439.50261,68.7688877 Z M825.81908,31.5569618 C829.732553,31.5569618 832.905049,34.7278473 832.905049,38.6393328 C832.905049,42.4709921 829.860721,45.5919715 826.057734,45.7177626 L825.81908,45.7217039 C821.905608,45.7217039 818.733111,42.5508184 818.733111,38.6393328 C818.733111,34.7278473 821.905608,31.5569618 825.81908,31.5569618 Z M825.81908,33.5569618 C823.00995,33.5569618 820.733111,35.8326443 820.733111,38.6393328 C820.733111,41.374055 822.894686,43.6046531 825.604073,43.7172448 L825.81908,43.7217039 C828.628211,43.7217039 830.905049,41.4460214 830.905049,38.6393328 C830.905049,35.8326443 828.628211,33.5569618 825.81908,33.5569618 Z" id="Macbook-Pro"></path>
            </g>
        </g>
    </g>
</svg>