<?xml version="1.0" encoding="UTF-8"?>
<svg width="1064px" height="562px" viewBox="0 0 1064 562" version="1.1" xmlns="http://www.w3.org/2000/svg" xmlns:xlink="http://www.w3.org/1999/xlink">
    <!-- Generator: Sketch 64 (93537) - https://sketch.com -->
    <title>Wii</title>
    <desc>Created with Sketch.</desc>
    <g id="Gadgets-illustrations" stroke="none" stroke-width="1" fill="none" fill-rule="evenodd">
        <g transform="translate(-5777.000000, -1028.000000)" fill="#000000" fill-rule="nonzero" id="4">
            <g transform="translate(5777.000000, 1028.000000)">
                <path d="M909.49959,2.78055412e-07 C994.553197,3.04204113e-07 1063.5,68.9453102 1063.5,154.000258 L1063.5,154.000258 L1063.5,403.001033 C1063.5,490.811711 992.311297,562 904.504197,562 L904.504197,562 L159.495803,562 C71.6842209,562 0.5,490.81489 0.5,403.001033 L0.5,403.001033 L0.5,154.000258 C0.5,68.9489154 69.4495919,1.9792211e-08 154.50041,4.59400553e-08 L154.50041,4.59400553e-08 Z M154.50041,8.00000005 C73.8678523,8.00000002 8.5,73.367211 8.5,154.000258 L8.5,154.000258 L8.5,403.001033 C8.5,486.396634 76.1025212,554 159.495803,554 L159.495803,554 L904.504197,554 C987.89303,554 1055.5,486.393422 1055.5,403.001033 L1055.5,403.001033 L1055.5,154.000258 C1055.5,73.363627 990.134958,8.0000003 909.49959,8.00000028 L909.49959,8.00000028 Z M532,481.447273 C545.07786,481.447273 555.679561,492.0451 555.679561,505.118182 C555.679561,518.060533 545.288834,528.576887 532.391585,528.78592 L532,528.789091 C518.92214,528.789091 508.320439,518.191264 508.320439,505.118182 C508.320439,492.0451 518.92214,481.447273 532,481.447273 Z M532,484.447273 C520.578749,484.447273 511.320439,493.702199 511.320439,505.118182 C511.320439,516.417675 520.390768,525.59999 531.651053,525.786207 L532,525.789091 C543.421251,525.789091 552.679561,516.534164 552.679561,505.118182 C552.679561,493.702199 543.421251,484.447273 532,484.447273 Z M808.697792,491.527273 C816.206813,491.527273 822.293303,497.611028 822.293303,505.118182 C822.293303,512.624825 816.207323,518.709091 808.697792,518.709091 C801.188771,518.709091 795.102281,512.625335 795.102281,505.118182 C795.102281,497.611539 801.18826,491.527273 808.697792,491.527273 Z M760.283773,491.527273 C764.700445,491.527273 768.284145,495.111555 768.284145,499.525087 L768.284145,499.525087 L768.284145,510.711277 C768.284145,515.126701 764.698553,518.709091 760.283773,518.709091 L760.283773,518.709091 L749.093495,518.709091 C744.676823,518.709091 741.093123,515.124808 741.093123,510.711277 L741.093123,510.711277 L741.093123,499.525087 C741.093123,495.109663 744.678716,491.527273 749.093495,491.527273 L749.093495,491.527273 Z M808.697792,493.527273 C802.292704,493.527273 797.102281,498.716234 797.102281,505.118182 C797.102281,511.520564 802.293139,516.709091 808.697792,516.709091 C815.10288,516.709091 820.293303,511.520129 820.293303,505.118182 C820.293303,498.715799 815.102444,493.527273 808.697792,493.527273 Z M760.283773,493.527273 L749.093495,493.527273 C745.782885,493.527273 743.093123,496.214633 743.093123,499.525087 L743.093123,499.525087 L743.093123,510.711277 C743.093123,514.020312 745.781465,516.709091 749.093495,516.709091 L749.093495,516.709091 L760.283773,516.709091 C763.594383,516.709091 766.284145,514.021731 766.284145,510.711277 L766.284145,510.711277 L766.284145,499.525087 C766.284145,496.216052 763.595803,493.527273 760.283773,493.527273 L760.283773,493.527273 Z M291.67765,500.081818 L291.67765,516.701818 L287.647087,516.701818 L287.647087,500.081818 L291.67765,500.081818 Z M281.601242,500.081818 L281.601242,516.701818 L277.570678,516.701818 L277.570678,500.081818 L281.601242,500.081818 Z M254.670529,496.154605 C255.883135,492.148363 259.601472,492.14795 260.816827,496.153281 L260.816827,496.153281 L265.049151,510.101345 C265.049151,510.101345 265.837416,507.606836 266.259574,506.165979 C266.471905,505.441278 266.671231,504.73743 266.855256,504.060124 C266.94372,503.734529 267.028399,503.415978 267.109078,503.105011 C269.171625,495.155182 269.512231,493.79505 269.512231,493.534545 L269.512231,493.534545 L273.512231,493.534545 C273.512231,494.37058 273.640218,493.859492 270.98089,504.109535 C270.896293,504.435603 270.8077,504.76888 270.715314,505.108908 C270.52409,505.81271 270.31765,506.541679 270.098205,507.290662 C269.664138,508.772165 269.199798,510.26336 268.735466,511.692102 C268.572915,512.192271 268.421873,512.649216 268.286145,513.053816 C268.204249,513.297946 268.14532,513.471347 268.12218,513.538044 C266.824114,517.495323 263.100241,517.454438 261.891409,513.470604 L261.891409,513.470604 L257.746656,499.8 L253.608952,513.46928 C252.394882,517.480359 248.675574,517.468423 247.46551,513.468729 C247.43089,513.355763 247.366388,513.144394 247.276266,512.847636 C247.126288,512.35378 246.959226,511.800603 246.779337,511.201105 C246.265287,509.487976 245.751191,507.74607 245.270993,506.078925 C245.194622,505.813781 245.11961,505.552246 245.046043,505.294583 C244.934144,504.902665 244.825793,504.520421 244.721257,504.148664 C244.668514,503.961096 243.783219,500.86596 243.461409,499.720926 C243.41043,499.539413 243.41043,499.539413 243.359504,499.35757 C242.395951,495.914365 241.972637,494.249583 241.972637,493.534545 L241.972637,493.534545 L245.972637,493.534545 C245.972637,493.664796 246.49518,495.719821 247.211518,498.279615 C247.261816,498.459217 247.261816,498.459217 247.312216,498.638664 C247.630724,499.771951 248.51592,502.86674 248.571917,503.065882 C248.674972,503.43237 248.781871,503.809494 248.89234,504.196402 C248.965041,504.451033 249.039198,504.709587 249.114723,504.971793 C249.568408,506.546891 250.539807,509.815462 250.539807,509.815462 L250.539807,509.815462 Z M532,493.534545 L543.58787,503.607273 L540.564947,503.607273 L540.564947,513.68 L523.435053,513.68 L523.435053,503.607273 L520.41213,503.607273 L532,493.534545 Z M810.612248,498.886542 C813.2437,499.736096 815.147087,502.20494 815.147087,505.118182 C815.147087,508.655533 812.340811,511.537683 808.832337,511.661322 L808.597421,511.665455 C804.980141,511.665455 802.047755,508.734141 802.047755,505.118182 C802.047755,502.20494 803.951142,499.736096 806.582594,498.886542 L806.582049,499.955884 C804.517765,500.761795 803.055396,502.769274 803.055396,505.118182 C803.055396,508.10499 805.419897,510.539742 808.379806,510.653989 L808.597421,510.658182 C811.658197,510.658182 814.139446,508.177839 814.139446,505.118182 C814.139446,502.769274 812.677078,500.761795 810.612793,499.955884 L810.612248,498.886542 Z M756.494319,500.585455 L759.112807,508.046552 L759.223018,508.046552 L761.783364,500.585455 L763.085228,500.585455 L759.78096,509.650909 L758.554866,509.650909 L755.192455,500.585455 L756.494319,500.585455 Z M536.03013,503.606545 L527.96913,503.606545 L527.969436,509.650909 L536.030564,509.650909 L536.03013,503.606545 Z M754.21335,500.585455 L754.21335,501.70093 L751.010351,501.70093 L751.010351,509.647774 L749.770481,509.647774 L749.770481,501.70093 L746.567482,501.70093 L746.567482,500.585455 L754.21335,500.585455 Z M187.689926,500.585455 C189.955982,500.585455 191.805985,502.370951 191.916025,504.60526 L191.921203,504.816 C191.921203,507.152466 190.024732,509.046545 187.689926,509.046545 L174.992022,509.046545 C172.655152,509.046545 170.760745,507.147711 170.760745,504.816 C170.760745,502.479534 172.657217,500.585455 174.992022,500.585455 L187.689926,500.585455 Z M889.007978,500.585455 C891.274034,500.585455 893.124036,502.370951 893.234077,504.60526 L893.239255,504.816 C893.239255,507.152466 891.342783,509.046545 889.007978,509.046545 L876.310074,509.046545 C873.973204,509.046545 872.078797,507.147711 872.078797,504.816 C872.078797,502.479534 873.975268,500.585455 876.310074,500.585455 L889.007978,500.585455 Z M700.276027,501.592727 C702.223793,501.592727 703.80277,503.171127 703.80277,505.118182 C703.80277,507.065237 702.223793,508.643636 700.276027,508.643636 C698.32826,508.643636 696.749284,507.065237 696.749284,505.118182 C696.749284,503.171127 698.32826,501.592727 700.276027,501.592727 Z M468.518625,502.6 C469.909886,502.6 471.037727,503.727428 471.037727,505.118182 C471.037727,506.508935 469.909886,507.636364 468.518625,507.636364 C467.127363,507.636364 465.999522,506.508935 465.999522,505.118182 C465.999522,503.727428 467.127363,502.6 468.518625,502.6 Z M809.23192,497.563636 L809.23192,504.614545 L808.022751,504.614545 L808.022751,497.563636 L809.23192,497.563636 Z M289.612183,491.52 C291.142571,491.52 292.383196,492.760171 292.383196,494.29 C292.383196,495.819829 291.142571,497.06 289.612183,497.06 C288.081796,497.06 286.841171,495.819829 286.841171,494.29 C286.841171,492.760171 288.081796,491.52 289.612183,491.52 Z M279.535775,491.52 C281.066163,491.52 282.306787,492.760171 282.306787,494.29 C282.306787,495.819829 281.066163,497.06 279.535775,497.06 C278.005387,497.06 276.764762,495.819829 276.764762,494.29 C276.764762,492.760171 278.005387,491.52 279.535775,491.52 Z M818.787092,100.72 C828.730593,100.72 836.788443,108.771968 836.788443,118.714635 L836.788443,118.714635 L836.788443,444.292638 C836.788443,454.232419 828.731536,462.287273 818.787092,462.287273 L818.787092,462.287273 L244.205267,462.287273 C234.261767,462.287273 226.203916,454.235304 226.203916,444.292638 L226.203916,444.292638 L226.203916,118.714635 C226.203916,108.774854 234.260823,100.72 244.205267,100.72 L244.205267,100.72 Z M818.787092,106.72 L244.205267,106.72 C237.574189,106.72 232.203916,112.088905 232.203916,118.714635 L232.203916,118.714635 L232.203916,444.292638 C232.203916,450.920615 237.574495,456.287273 244.205267,456.287273 L244.205267,456.287273 L818.787092,456.287273 C825.41817,456.287273 830.788443,450.918368 830.788443,444.292638 L830.788443,444.292638 L830.788443,118.714635 C830.788443,112.086658 825.417864,106.72 818.787092,106.72 L818.787092,106.72 Z M816.68375,117.821818 C818.339345,117.821818 819.681471,119.157991 819.681471,120.827981 L819.681471,442.179292 C819.681471,443.83955 818.343974,445.185455 816.68375,445.185455 L246.308609,445.185455 C244.653014,445.185455 243.310888,443.849281 243.310888,442.179292 L243.310888,120.827981 C243.310888,119.167723 244.648386,117.821818 246.308609,117.821818 L816.68375,117.821818 Z M816.68375,119.821818 L246.308609,119.821818 C245.795745,119.821818 245.375063,120.207359 245.317582,120.710024 L245.310888,120.827981 L245.310888,442.179292 C245.310888,442.741607 245.754481,443.185455 246.308609,443.185455 L816.68375,443.185455 C817.236065,443.185455 817.681471,442.738318 817.681471,442.179292 L817.681471,120.827981 C817.681471,120.265665 817.237878,119.821818 816.68375,119.821818 Z M882.155205,399.865455 C890.498474,399.865455 897.262178,406.626687 897.262178,414.967273 C897.262178,423.307858 890.498474,430.069091 882.155205,430.069091 C873.811937,430.069091 867.048233,423.307858 867.048233,414.967273 C867.048233,406.626687 873.811937,399.865455 882.155205,399.865455 Z M882.155205,401.865455 C874.916343,401.865455 869.048233,407.73142 869.048233,414.967273 C869.048233,422.203125 874.916343,428.069091 882.155205,428.069091 C889.394068,428.069091 895.262178,422.203125 895.262178,414.967273 C895.262178,407.73142 889.394068,401.865455 882.155205,401.865455 Z M889.208691,413.96 L889.208691,415.974545 L875.101719,415.974545 L875.101719,413.96 L889.208691,413.96 Z M156.685753,373.669091 C158.89411,373.669091 160.684336,375.45352 160.684336,377.667395 L160.684336,396.867151 C160.684336,399.075353 158.8914,400.865455 156.685753,400.865455 L121.354361,400.865455 C119.146005,400.865455 117.355778,399.081025 117.355778,396.867151 L117.355778,377.667395 C117.355778,375.459193 119.148715,373.669091 121.354361,373.669091 L156.685753,373.669091 Z M156.685753,376.669091 L121.354361,376.669091 C120.843564,376.669091 120.420367,377.055594 120.362517,377.551211 L120.355778,377.667395 L120.355778,396.867151 C120.355778,397.421506 120.800193,397.865455 121.354361,397.865455 L156.685753,397.865455 C157.235842,397.865455 157.684336,397.417202 157.684336,396.867151 L157.684336,377.667395 C157.684336,377.113039 157.239921,376.669091 156.685753,376.669091 Z M160.267718,367.636364 C163.864552,367.636364 166.77731,370.542482 166.777311,374.139428 L166.777311,374.139428 L166.777312,395.325454 C166.777312,396.153882 166.105739,396.825454 165.277312,396.825455 C164.448885,396.825455 163.777312,396.153882 163.777312,395.325455 L163.777312,395.325455 L163.777311,374.139428 C163.777311,372.200871 162.209229,370.636364 160.267718,370.636364 L160.267718,370.636364 L123.401624,370.636364 C122.573197,370.636364 121.901624,369.964791 121.901624,369.136364 C121.901624,368.307937 122.573197,367.636364 123.401624,367.636364 L123.401624,367.636364 Z M882.155205,344.465455 C890.498474,344.465455 897.262178,351.226687 897.262178,359.567273 C897.262178,367.907858 890.498474,374.669091 882.155205,374.669091 C873.811937,374.669091 867.048233,367.907858 867.048233,359.567273 C867.048233,351.226687 873.811937,344.465455 882.155205,344.465455 Z M882.155205,346.465455 C874.916343,346.465455 869.048233,352.33142 869.048233,359.567273 C869.048233,366.803125 874.916343,372.669091 882.155205,372.669091 C889.394068,372.669091 895.262178,366.803125 895.262178,359.567273 C895.262178,352.33142 889.394068,346.465455 882.155205,346.465455 Z M883.162846,352.516364 L883.162719,358.559364 L889.208691,358.56 L889.208691,360.574545 L883.162719,360.574364 L883.162846,366.618182 L881.147564,366.618182 L881.146719,360.574364 L875.101719,360.574545 L875.101719,358.56 L881.146719,358.559364 L881.147564,352.516364 L883.162846,352.516364 Z M929.514327,272.438182 C940.922673,272.438182 950.170965,281.683095 950.170965,293.087273 C950.170965,304.491451 940.922673,313.736364 929.514327,313.736364 C918.10598,313.736364 908.857689,304.491451 908.857689,293.087273 C908.857689,281.683095 918.10598,272.438182 929.514327,272.438182 Z M929.514327,275.46 C919.775495,275.46 911.880611,283.351999 911.880611,293.087273 C911.880611,302.822547 919.775495,310.714545 929.514327,310.714545 C939.253159,310.714545 947.148042,302.822547 947.148042,293.087273 C947.148042,283.351999 939.253159,275.46 929.514327,275.46 Z M153.663247,203.44 C156.427878,203.44 158.669054,205.687223 158.669054,208.436808 L158.668155,234.658 L184.891075,234.658828 C187.650735,234.658828 189.887882,236.900621 189.887882,239.664636 L189.887882,265.928092 C189.887882,268.692723 187.64066,270.933899 184.891075,270.933899 L158.668155,270.933 L158.669054,297.15592 C158.669054,299.91558 156.427262,302.152727 153.663247,302.152727 L127.399791,302.152727 C124.635159,302.152727 122.393983,299.905505 122.393983,297.15592 L122.393155,270.933 L96.1719626,270.933899 C93.412302,270.933899 91.175155,268.692107 91.175155,265.928092 L91.175155,239.664636 C91.175155,236.900004 93.4223777,234.658828 96.1719626,234.658828 L122.393155,234.658 L122.393983,208.436808 C122.393983,205.677147 124.635776,203.44 127.399791,203.44 L153.663247,203.44 Z M930.761884,286.148378 C932.835001,286.148378 934.51738,287.831905 934.51738,289.903316 C934.51738,291.05584 933.996883,292.087551 933.178479,292.776502 C934.451485,293.436248 935.322066,294.7669 935.322066,296.298244 C935.322066,298.421431 933.653503,300.1566 931.558841,300.259813 L931.361256,300.26467 L926.630139,300.264669 L926.629763,300.261378 L925.483763,300.262363 L925.483763,286.160545 L925.484763,286.160378 L925.484993,286.148378 L930.761884,286.148378 Z M931.354518,293.842727 L926.994763,293.842378 L926.994763,298.753378 L931.361256,298.753761 C932.712247,298.753761 933.810605,297.653911 933.810605,296.298244 C933.810605,294.998471 932.795903,293.931258 931.515852,293.847961 L931.354518,293.842727 Z M153.663247,207.44 L127.399791,207.44 C126.882786,207.44 126.45868,207.826448 126.400731,208.321011 L126.393983,208.436934 L126.393029,238.657874 L96.1719626,238.658828 C95.6672278,238.658828 95.2403653,239.049797 95.1819602,239.547913 L95.175155,239.664636 L95.175155,265.928092 C95.175155,266.445097 95.5616026,266.869202 96.0559553,266.927151 L96.1718254,266.933899 L126.393029,266.932863 L126.393983,297.15592 C126.393983,297.660654 126.784952,298.087517 127.283068,298.145922 L127.399791,298.152727 L153.663247,298.152727 C154.180252,298.152727 154.604357,297.76628 154.662306,297.271927 L154.669054,297.156057 L154.668018,266.932863 L184.891075,266.933899 C185.395809,266.933899 185.822672,266.54293 185.881077,266.044814 L185.887882,265.928092 L185.887882,239.664636 C185.887882,239.147631 185.501435,238.723525 185.006871,238.665576 L184.890948,238.658828 L154.668018,238.657874 L154.669054,208.436808 C154.669054,207.932073 154.278085,207.50521 153.779969,207.446805 L153.663247,207.44 Z M926.994763,287.658378 L926.994763,292.146378 L930.761314,292.147345 C931.947556,292.147345 932.921619,291.223603 933.000731,290.056827 L933.005919,289.903316 C933.005919,288.666003 931.99989,287.659288 930.761884,287.659288 L926.994763,287.658378 Z M140.531519,275.208182 L140.641988,275.214098 C141.14955,275.268841 141.53916,275.696736 141.53916,276.216478 L141.53916,276.216478 L141.53916,290.31858 C141.53916,290.878948 141.088023,291.326877 140.531519,291.326877 L140.531519,291.326877 L140.421049,291.32096 C139.913488,291.266218 139.523878,290.838323 139.523878,290.31858 L139.523878,290.31858 L139.523878,276.216478 C139.523878,275.656111 139.975014,275.208182 140.531519,275.208182 L140.531519,275.208182 Z M971.835244,230.132727 C983.24359,230.132727 992.491882,239.37764 992.491882,250.781818 C992.491882,262.185996 983.24359,271.430909 971.835244,271.430909 C960.426897,271.430909 951.178606,262.185996 951.178606,250.781818 C951.178606,239.37764 960.426897,230.132727 971.835244,230.132727 Z M887.19341,230.143636 C898.595303,230.143636 907.838586,239.383542 907.838586,250.781818 C907.838586,262.180094 898.595303,271.42 887.19341,271.42 C875.791516,271.42 866.548233,262.180094 866.548233,250.781818 C866.548233,239.383542 875.791516,230.143636 887.19341,230.143636 Z M887.19341,233.143636 C877.448125,233.143636 869.548233,241.040642 869.548233,250.781818 C869.548233,260.522994 877.448125,268.42 887.19341,268.42 C896.938694,268.42 904.838586,260.522994 904.838586,250.781818 C904.838586,241.040642 896.938694,233.143636 887.19341,233.143636 Z M971.835244,233.154545 C962.096411,233.154545 954.201528,241.046544 954.201528,250.781818 C954.201528,260.517092 962.096411,268.409091 971.835244,268.409091 C981.574076,268.409091 989.468959,260.517092 989.468959,250.781818 C989.468959,241.046544 981.574076,233.154545 971.835244,233.154545 Z M882.324388,243.450056 L882.76585,244.112008 L886.919,250.340056 L891.125601,244.179081 L891.574202,243.521942 L892.88896,244.418816 L892.440359,245.075954 L888.127152,251.394217 L887.686,252.039056 L887.686981,258.208727 L886.095265,258.208727 L886.095,251.973056 L885.686038,251.359148 L881.441463,244.994611 L881,244.332659 L882.324388,243.450056 Z M972.853446,244.032793 C972.858021,244.031128 973.100916,244.710123 973.145041,244.83359 L973.151879,244.852729 L977.09533,255.687273 L977.621284,257.13232 L976.013982,257.135511 L975.675021,256.204223 L974.730318,253.610761 L968.680318,253.610761 L967.736581,256.204226 L967.388501,257.160566 L965.790318,257.132323 L966.316272,255.687276 L970.259723,244.852732 L970.558168,244.032761 L970.745261,244.033556 C971.092719,244.035032 971.84109,244.038213 972.26873,244.04003 L972.435367,244.040739 C972.615948,244.041506 972.821822,244.042381 972.829795,244.042415 L972.853446,244.032793 Z M103.17117,251.788469 L116.788079,251.789712 C117.338256,251.789763 117.7888,252.240775 117.788749,252.797077 L117.788749,252.797077 L117.782005,252.915262 C117.72415,253.41884 117.301121,253.804305 116.787895,253.804258 L116.787895,253.804258 L103.170986,253.803015 C102.620809,253.802965 102.170265,253.351952 102.170315,252.795651 L102.170315,252.795651 L102.177059,252.677465 C102.234914,252.173887 102.657943,251.788423 103.17117,251.788469 L103.17117,251.788469 Z M164.637264,251.788469 L178.254172,251.789712 C178.804349,251.789763 179.254894,252.240775 179.254843,252.797077 L179.254843,252.797077 L179.248099,252.915262 C179.190244,253.41884 178.767215,253.804305 178.253988,253.804258 L178.253988,253.804258 L164.637079,253.803015 C164.086903,253.802965 163.636358,253.351952 163.636409,252.795651 L163.636409,252.795651 L163.643153,252.677465 C163.701008,252.173887 164.124037,251.788423 164.637264,251.788469 L164.637264,251.788469 Z M971.716318,245.326761 L971.680032,245.369682 L969.229318,252.099761 L974.181318,252.099761 L971.731569,245.369679 L971.716318,245.326761 Z M929.514327,186.316364 C941.75743,186.316364 951.682426,196.237734 951.682426,208.476364 C951.682426,220.592607 941.954937,230.437705 929.880917,230.633395 L929.514327,230.636364 C917.271223,230.636364 907.346227,220.714994 907.346227,208.476364 C907.346227,196.237734 917.271223,186.316364 929.514327,186.316364 Z M140.531519,214.016364 L140.649748,214.023095 C141.153515,214.080892 141.53916,214.503794 141.53916,215.01691 L141.53916,215.01691 L141.53916,228.630876 C141.53916,229.180934 141.088023,229.631422 140.531519,229.631422 L140.531519,229.631422 L140.41329,229.624691 C139.909522,229.566894 139.523878,229.143992 139.523878,228.630876 L139.523878,228.630876 L139.523878,215.01691 C139.523878,214.466852 139.975014,214.016364 140.531519,214.016364 L140.531519,214.016364 Z M929.514327,189.338182 C918.940738,189.338182 910.36915,197.906638 910.36915,208.476364 C910.36915,219.04609 918.940738,227.614545 929.514327,227.614545 C940.087916,227.614545 948.659503,219.04609 948.659503,208.476364 C948.659503,197.906638 940.087916,189.338182 929.514327,189.338182 Z M933.839736,201.082325 L935.062534,201.97074 L933.99677,203.437638 L930.323418,208.492325 L933.99677,213.547603 L935.062534,215.014501 L933.839736,215.902915 L932.773972,214.436017 L929.389418,209.778325 L926.00598,214.436017 L924.940216,215.902915 L923.717418,215.014501 L924.783182,213.547603 L928.455418,208.492325 L924.783182,203.437638 L923.717418,201.97074 L924.940216,201.082325 L926.00598,202.549223 L929.389418,207.206325 L932.773972,202.549223 L933.839736,201.082325 Z M94.6838586,71.4872727 C126.682878,71.4872727 152.623209,97.418126 152.623209,129.405455 C152.623209,161.07291 127.199091,186.804414 95.6419917,187.315877 L94.6838586,187.323636 C62.6848389,187.323636 36.7445081,161.392783 36.7445081,129.405455 C36.7445081,97.418126 62.6848389,71.4872727 94.6838586,71.4872727 Z M972.32107,68.5090909 C1004.31015,68.5090909 1030.24243,94.4318911 1030.24243,126.409286 C1030.24243,158.066906 1004.8262,183.790419 973.278906,184.301724 L972.32107,184.309481 C940.331988,184.309481 914.399713,158.38668 914.399713,126.409286 C914.399713,94.4318911 940.331988,68.5090909 972.32107,68.5090909 Z M94.6838586,74.5090909 C64.354353,74.5090909 39.7674308,99.0870301 39.7674308,129.405455 C39.7674308,159.723879 64.354353,184.301818 94.6838586,184.301818 C125.013364,184.301818 149.600287,159.723879 149.600287,129.405455 C149.600287,99.0870301 125.013364,74.5090909 94.6838586,74.5090909 Z M972.32107,71.6388312 C942.061128,71.6388312 917.530598,96.1603989 917.530598,126.409286 C917.530598,156.658172 942.061128,181.17974 972.32107,181.17974 C1002.58101,181.17974 1027.11154,156.658172 1027.11154,126.409286 C1027.11154,96.1603989 1002.58101,71.6388312 972.32107,71.6388312 Z M94.6244031,88.6109091 C117.130007,88.6109091 135.374403,106.855306 135.374403,129.360909 C135.374403,151.866513 117.130007,170.110909 94.6244031,170.110909 C72.1187995,170.110909 53.8744031,151.866513 53.8744031,129.360909 C53.8744031,106.855306 72.1187995,88.6109091 94.6244031,88.6109091 Z M974.850098,85.201039 C997.355701,85.201039 1015.6001,103.445435 1015.6001,125.951039 C1015.6001,148.456643 997.355701,166.701039 974.850098,166.701039 C952.344494,166.701039 934.100098,148.456643 934.100098,125.951039 C934.100098,103.445435 952.344494,85.201039 974.850098,85.201039 Z M94.6244031,94.6479461 C75.452963,94.6479461 59.9114401,110.189469 59.9114401,129.360909 C59.9114401,148.532349 75.452963,164.073872 94.6244031,164.073872 C113.795843,164.073872 129.337366,148.532349 129.337366,129.360909 C129.337366,110.189469 113.795843,94.6479461 94.6244031,94.6479461 Z M974.850098,91.3909124 C955.763067,91.3909124 940.289971,106.864008 940.289971,125.951039 C940.289971,145.03807 955.763067,160.511166 974.850098,160.511166 C993.937129,160.511166 1009.41022,145.03807 1009.41022,125.951039 C1009.41022,106.864008 993.937129,91.3909124 974.850098,91.3909124 Z M94.5,102.5 C108.859403,102.5 120.5,114.140597 120.5,128.5 C120.5,142.859403 108.859403,154.5 94.5,154.5 C80.1405965,154.5 68.5,142.859403 68.5,128.5 C68.5,114.140597 80.1405965,102.5 94.5,102.5 Z M974.875,99 C989.717653,99 1001.75,111.032347 1001.75,125.875 C1001.75,140.717653 989.717653,152.75 974.875,152.75 C960.032347,152.75 948,140.717653 948,125.875 C948,111.032347 960.032347,99 974.875,99 Z M94.5,105.5 C81.7974508,105.5 71.5,115.797451 71.5,128.5 C71.5,141.202549 81.7974508,151.5 94.5,151.5 C107.202549,151.5 117.5,141.202549 117.5,128.5 C117.5,115.797451 107.202549,105.5 94.5,105.5 Z M974.875,102 C961.689202,102 951,112.689202 951,125.875 C951,139.060798 961.689202,149.75 974.875,149.75 C988.060798,149.75 998.75,139.060798 998.75,125.875 C998.75,112.689202 988.060798,102 974.875,102 Z M661.984322,24.1454545 C675.620085,24.1454545 686.672875,35.1925194 686.672875,48.8236364 C686.672875,62.4540974 675.621628,73.5018182 661.984322,73.5018182 L402.015678,73.5018182 C388.516272,73.5018182 377.548439,62.6745899 377.330432,49.2317862 L377.327125,48.8236364 C377.327125,35.1931753 388.378372,24.1454545 402.015678,24.1454545 L661.984322,24.1454545 Z M661.984322,29.1818182 L402.015678,29.1818182 C391.27409,29.1818182 382.550705,37.7915985 382.368245,48.4817624 L382.36533,48.8236364 C382.36533,59.6738982 391.16309,68.4654545 402.015678,68.4654545 L661.984322,68.4654545 C672.72591,68.4654545 681.449295,59.8556742 681.631755,49.1655103 L681.63467,48.8236364 C681.63467,37.9733746 672.83691,29.1818182 661.984322,29.1818182 Z M532,32.7181818 C540.897622,32.7181818 548.110793,39.9287167 548.110793,48.8236364 C548.110793,57.718556 540.897622,64.9290909 532,64.9290909 C523.102378,64.9290909 515.889207,57.718556 515.889207,48.8236364 C515.889207,39.9287167 523.102378,32.7181818 532,32.7181818 Z M532,35.7181818 C524.758986,35.7181818 518.889207,41.5858164 518.889207,48.8236364 C518.889207,56.0614563 524.758986,61.9290909 532,61.9290909 C539.241014,61.9290909 545.110793,56.0614563 545.110793,48.8236364 C545.110793,41.5858164 539.241014,35.7181818 532,35.7181818 Z M532,39.2545455 C537.286795,39.2545455 541.572588,43.5387734 541.572588,48.8236364 C541.572588,54.017381 537.433307,58.2446978 532.272545,58.3889234 L532,58.3927273 C526.713205,58.3927273 522.427412,54.1084993 522.427412,48.8236364 C522.427412,43.5387734 526.713205,39.2545455 532,39.2545455 Z M532,41.2545455 C527.817611,41.2545455 524.427412,44.6435065 524.427412,48.8236364 C524.427412,52.9218029 527.685966,56.2595227 531.75491,56.388838 L532,56.3927273 C536.182389,56.3927273 539.572588,53.0037662 539.572588,48.8236364 C539.572588,44.6435065 536.182389,41.2545455 532,41.2545455 Z M532,47.3127273 C532.834757,47.3127273 533.511461,47.9891843 533.511461,48.8236364 C533.511461,49.6580884 532.834757,50.3345455 532,50.3345455 C531.165243,50.3345455 530.488539,49.6580884 530.488539,48.8236364 C530.488539,47.9891843 531.165243,47.3127273 532,47.3127273 Z" id="Wii"></path>
            </g>
        </g>
    </g>
</svg>